Genre: Crime | Drama | Mystery
Language:English
IMDb:http://www.imdb.com/title/tt1568346/
Source:RUSSIAN R5/AC3 5.1 (CM8) Thanks!
Encoder:Tony

Format : AVI
Format/Info : Audio Video Interleave
File size : 1.70 GiB
Duration : 2h 31mn
Overall bit rate : 1 604 Kbps

Video
ID : 0
Format : MPEG-4 Visual
Format profile : Advanced Simple@L5
Format settings, BVOP : 1
Format settings, QPel : No
Format settings, GMC : No warppoints
Format settings, Matrix : Default (H.263)
Codec ID : XVID
Codec ID/Hint : XviD
Duration : 2h 31mn
Bit rate : 1 146 Kbps
Width : 640 pixels
Height : 272 pixels
Display aspect ratio : 2.35:1
Frame rate : 25.000 fps
Color space : YUV
Chroma subsampling : 4:2:0
Bit depth : 8 bits
Scan type : Progressive
Compression mode : Lossy
Bits/(Pixel*Frame) : 0.263
Stream size : 1.21 GiB (71%)
Writing library : XviD 1.2.1 (UTC 2008-12-04)

Audio
ID : 1
Format : AC-3
Format/Info : Audio Coding 3
Mode extension : CM (complete main)
Codec ID : 2000
Duration : 2h 31mn
Bit rate mode : Constant
Bit rate : 448 Kbps
Channel(s) : 6 channels
Channel positions : Front: L C R, Side: L R, LFE
Sampling rate : 48.0 KHz
Bit depth : 16 bits
Compression mode : Lossy
Stream size : 486 MiB (28%)
Alignment : Aligned on interleaves
Interleave, duration : 40 ms (1.00 video frame)
Interleave, preload duration : 512 ms


Plot:
Journalist Mikael Blomkvist is aided in his search for a woman who has been missing for forty years by Lisbeth Salander, a young computer hacker

Screens

[img]http://img690.imageshack.us/img690/1769/vlcsnap2012020207h46m23.png[/img]

[img]http://img690.imageshack.us/img690/1769/vlcsnap2012020207h46m23.png[/img]

[img]http://img804.imageshack.us/img804/7167/vlcsnap2012020207h44m30.png[/img]